<?xml version="1.0" encoding="UTF-8"?>
<svg xmlns="http://www.w3.org/2000/svg" xmlns:xlink="http://www.w3.org/1999/xlink" viewBox="0 0 984.55 559.64">
  <defs>
    <style>
      .cls-1, .cls-2 {
        fill: #52796f;
      }

      .cls-2 {
        stroke-width: .5px;
      }

      .cls-2, .cls-3 {
        stroke-linejoin: round;
      }

      .cls-2, .cls-3, .cls-4 {
        stroke: #4d2369;
        stroke-linecap: round;
      }

      .cls-3 {
        filter: url(#drop-shadow-1);
      }

      .cls-3, .cls-4 {
        fill: none;
      }

      .cls-4 {
        stroke-miterlimit: 10;
      }
    </style>
    <filter id="drop-shadow-1" x="119.34" y="17.26" width="291" height="303" filterUnits="userSpaceOnUse">
      <feOffset dx="7" dy="7"/>
      <feGaussianBlur result="blur" stdDeviation="5"/>
      <feFlood flood-color="#ae00ff" flood-opacity=".87"/>
      <feComposite in2="blur" operator="in"/>
      <feComposite in="SourceGraphic"/>
    </filter>
  </defs>
  <g id="Layer_2" data-name="Layer 2">
    <line class="cls-4" x1="276.89" y1="136.48" x2="277.98" y2="139.46"/>
  </g>
  <g id="Layer_3" data-name="Layer 3">
    <g>
      <path class="cls-3" d="M386.88,286.58s-61.26,24.92-84.96-2.12c-22.74-25.93-7.74-52.28,0-57.9,16.89-12.24,37.08,23.95,17.75,40.99s-52.69,1.75-72.14-5.75c-26.09-10.05-19.88-72.35,10.27-54.11,36.37,21.99-33.3,55.93-68.99,31.5-35.68-24.43-34.7-125.55,18.95-103.31,43.01,17.83,24.37,114.47-50.99,50.23C57.94,101.87,241.15-56.5,382.87,78.69"/>
      <polygon class="cls-2" points="378.88 91.32 383.68 78.45 388.47 91.32 401.43 96.07 388.47 100.83 383.68 113.69 378.88 100.83 365.92 96.07 378.88 91.32"/>
      <g>
        <path class="cls-1" d="M255.64,187.23v-.83h1.53c.78,0,1-.49,1-1.05,0-.25-.06-.56-.12-.8-.12-.22-.09-.31-.16-.56-1.4-5.01-3.74-9.18-7.26-12.33-3.18-2.84-7.16-4.6-11.77-4.67l-2.12,5.66c-.62,1.67-.93,3.34-.93,4.94,0,1.98.47,3.8,1.37,5.28,1.4,2.35,4.02,3.8,6.54,3.86,2.21-.06,4.33-1.17,5.42-3.71h.93l-1.31,4.2h-4.83c-3.08,0-5.85-1.27-7.54-4.11-.93-1.55-1.43-3.46-1.43-5.53,0-1.64.31-3.4.97-5.13l10.71-28.62-.5-1.85c-.34-.87-.59-1.24-1.65-1.24h-1.06v-.83h11.27v.83h-2.02c-.65,0-1,.49-1,1.08,0,.12.03.28.06.43l11.77,42.09c.25.96.44,2.04,1.68,2.04h1.37v.83h-10.93ZM247.01,145.17l-7.85,20.95c7.29.22,13.17,4.57,16.72,10.79l-8.88-31.74Z"/>
        <path class="cls-1" d="M294.04,191.31c-5.36-2.1-10.68-4.23-15.42-4.23-2.83,0-5.42.74-7.72,2.66v-.87c2.65-1.58,3.24-3.21,3.36-4.11v-41.41c0-1.17-.81-2.6-2.12-2.6h-1.53v-.83h12.61v.83h-1.49c-1.31,0-2.09,1.42-2.12,2.6v40.64c4.64.53,9.72,2.78,14.76,5.07,5.67,2.53,11.4,5.1,16.47,5.1,4.3,0,8.16-1.82,11.15-7.08l.75.4c-3.43,6.15-7.82,8.22-12.67,8.22s-10.53-2.19-16.04-4.39ZM287.93,173.41c0-5.32,3.64-10.51,10.71-11.53-5.76-1.51-8.72-6.12-8.72-10.69,0-5.66,4.45-11.28,13.76-11.28,7.79,0,6.1.03,13.73.03l1.78,6.06h-.84c-.87-2.66-2.18-5.22-5.98-5.22-1.96-.03-5.82-.03-8.72-.03-6.07,0-8.35,5.01-8.35,10.07s2.49,10.75,5.7,10.79l.44.03h7.13c1.09,0,1.93-.49,1.93-1.67v-3.77h.84v11.68h-.84v-3.83c0-1.11-.87-1.61-1.9-1.61h-7.66c-4.7.19-7.69,5.19-7.69,10.41,0,5.59,3.43,11.4,11.83,11.74h.69c5.51,0,10.9-2.5,12.99-8.1h.9c-2.15,6.03-8.25,9.18-14.51,9.55l-1.65.06c-10.53,0-15.57-6.43-15.57-12.7Z"/>
        <path class="cls-1" d="M322.63,197.18c5.14-2.87,6.29-8,6.29-13.47v-42.24c-.47-.65-1.34-.71-1.4-.71h-1.9v-.83h11.8v.83h-1.9c-.09,0-1.71.15-1.71,1.79v41.32c0,7.23-4.11,11.28-10.96,14.03l-.22-.71Z"/>
        <path class="cls-1" d="M359.65,187.23v-.83h1.53c.78,0,1-.49,1-1.05,0-.25-.06-.56-.12-.8-.12-.22-.09-.31-.16-.56-1.4-5.01-3.74-9.18-7.26-12.33-3.18-2.84-7.16-4.6-11.77-4.67l-2.12,5.66c-.62,1.67-.93,3.34-.93,4.94,0,1.98.47,3.8,1.37,5.28,1.4,2.35,4.02,3.8,6.54,3.86,2.21-.06,4.33-1.17,5.42-3.71h.93l-1.31,4.2h-4.83c-3.08,0-5.85-1.27-7.54-4.11-.93-1.55-1.43-3.46-1.43-5.53,0-1.64.31-3.4.97-5.13l10.71-28.62-.5-1.85c-.34-.87-.59-1.24-1.65-1.24h-1.06v-.83h11.27v.83h-2.02c-.65,0-1,.49-1,1.08,0,.12.03.28.06.43l11.77,42.09c.25.96.44,2.04,1.68,2.04h1.37v.83h-10.93ZM351.03,145.17l-7.85,20.95c7.29.22,13.17,4.57,16.72,10.79l-8.88-31.74Z"/>
        <path class="cls-1" d="M399.89,187.23v-.83h1.49c.78,0,1.09-.53,1.09-1.05,0-.28-.09-.59-.22-.8l-23.14-39.68v38.97c0,1.14.81,2.56,2.12,2.56h1.53v.83h-8.13v-.83h1.53c1.31,0,2.12-1.42,2.12-2.56v-40.39c-1.34-2.22-2.49-2.69-3.52-2.69v-.83h11.74v.83h-2.02c-.62,0-1.06.53-1.06,1.05,0,.15.03.31.12.46l23.26,39.68v-38.6c0-1.14-.81-2.56-2.12-2.56h-1.49v-.87h8.1v.87h-1.53c-1.31,0-2.12,1.42-2.12,2.56v40.02l.12.19c1.4,2.41,2.49,2.84,3.52,2.84v.83h-11.4Z"/>
        <path class="cls-1" d="M415.34,187.23v-.83h1.49c1.25,0,2.12-1.36,2.12-2.47v-40.7c0-1.11-.87-2.47-2.12-2.47h-1.49v-.83h14.95c12.15,0,17.66,10.85,17.66,22.16,0,12.3-6.51,25.15-18,25.15h-14.61ZM442.49,161.86c0-10.82-3.74-21.11-12.21-21.11h-4.27c-1.59.03-1.71,1.42-1.71,2.6v40.48c0,1.17.12,2.56,1.74,2.56h3.92c7.94,0,12.52-12.58,12.52-24.54Z"/>
        <path class="cls-1" d="M449.15,187.23v-.83h1.53c1.31,0,2.12-1.42,2.12-2.56v-40.61c0-1.11-.87-2.47-2.12-2.47h-1.53v-.83h18.25c10.71,0,16.16,6.92,16.16,13.84,0,6.43-4.67,12.82-14.14,13.72l.47,1.61c3.74,11.65,12.24,16.87,20.09,16.87,5.85,0,11.37-2.94,14.2-8.31.06-.25.19-.99.19-2.01,0-3.92-1.9-11.9-17.38-11.96-1.06,2.75-1.62,4.17-1.62,6.77,0,1.95.47,3.8,1.34,5.28,1.43,2.38,4.05,3.8,6.57,3.86,2.21-.06,4.3-1.17,5.42-3.71h.93l-1.31,4.2h-4.73c-3.11,0-5.95-1.24-7.63-4.08-.93-1.58-1.43-3.52-1.43-5.56,0-1.67.31-3.4.97-5.16l9.5-25.37h13.2v.83h-2.02c-.65,0-1,.53-1,1.08l.06.4,5.36,19.13c.56,2.04.84,4.02.84,5.84,0,12.39-11.93,19.99-23.85,19.99-9.84,0-19.65-5.16-22.86-17.03l-.72-2.6h-5.82v16.25c0,1.14.78,2.56,2.09,2.56h1.53v.83h-12.64ZM478.12,153.79c0-6.52-3.61-13.04-10.62-13.04h-7.6c-1.62,0-1.71,1.42-1.71,2.6v23.33h9c7.38,0,10.93-6.43,10.93-12.89ZM506.21,169.03c0-2.26-.31-4.7-1.06-7.35-2.37-8.56-3.11-11.12-5.51-19.68-.34-.87-.56-1.24-1.65-1.24h-1.31c-.06,0-1.06.03-1.62,1.39-.16.4-.16.56-.28.74l-7.47,19.96c15.57.22,17.81,8.22,17.91,12.48.65-1.89,1-3.99,1-6.3Z"/>
        <path class="cls-1" d="M356.84,250.22l-.03-.83h1.53c.53,0,.72-.22.72-.56,0-.37-.25-.87-.53-1.3l-10.96-16.97h-4.24v16.25c0,1.14.81,2.56,2.12,2.56h1.53v.83h-12.61v-.83h1.49c1.31,0,2.12-1.42,2.12-2.56v-40.61c0-1.11-.87-2.47-2.12-2.47h-1.49v-.83h18.22c10.71,0,16.16,6.92,16.16,13.88,0,6.52-4.86,13.04-14.7,13.72l10.87,16.84c.62.96,1.21,2.04,2.46,2.04h1.37v.83h-11.9ZM363.28,216.79c0-6.52-3.61-13.04-10.62-13.04h-7.6c-1.62,0-1.74,1.42-1.74,2.6v23.33h9c7.38,0,10.96-6.43,10.96-12.89Z"/>
        <path class="cls-1" d="M370.58,248.83v-.83h1.53c1.31,0,2.09-1.42,2.12-2.56v-40.48c-.03-1.14-.81-2.56-2.12-2.56h-1.53v-.87h12.64v.87h-1.53c-1.31,0-2.12,1.42-2.12,2.56v40.48c0,1.14.81,2.56,2.12,2.56h1.53v.83h-12.64Z"/>
        <path class="cls-1" d="M413.19,248.83v-.83h1.49c.78,0,1.09-.53,1.09-1.05,0-.28-.09-.59-.22-.8l-23.14-39.68v38.97c0,1.14.81,2.56,2.12,2.56h1.53v.83h-8.13v-.83h1.53c1.31,0,2.12-1.42,2.12-2.56v-40.39c-1.34-2.22-2.49-2.69-3.52-2.69v-.83h11.74v.83h-2.02c-.62,0-1.06.53-1.06,1.05,0,.15.03.31.12.46l23.26,39.68v-38.6c0-1.14-.81-2.56-2.12-2.56h-1.49v-.87h8.1v.87h-1.53c-1.31,0-2.12,1.42-2.12,2.56v40.02l.12.19c1.4,2.41,2.49,2.84,3.52,2.84v.83h-11.4Z"/>
        <path class="cls-1" d="M446.66,248.83c-14.23,0-21.36-11.84-21.36-23.67s7.13-23.64,21.36-23.64h19.99l1.87,6.06h-1c-.84-2.66-1.53-5.22-5.61-5.22h-15.26c-10.71.03-16.07,11.4-16.07,22.81s5.36,22.78,16.07,22.84h15.26c4.08,0,4.76-2.6,5.61-5.25h1l-1.87,6.06c-1.49,0-2.96,0-4.45.03h-15.54ZM438.26,225.15c0-9.64,7.85-17.46,17.53-17.46s17.53,7.82,17.53,17.46-7.85,17.46-17.53,17.46-17.53-7.82-17.53-17.46ZM462.89,239.86c3.3-2.29,5.04-6.71,5.04-11.65,0-3.21-.75-6.64-2.27-9.86-2.87-5.9-7.69-9.39-12.18-9.39h-.06c-1.65,0-3.3.49-4.76,1.51-3.27,2.26-5.04,6.67-5.04,11.62,0,3.21.75,6.64,2.3,9.86,2.87,5.93,7.69,9.39,12.21,9.39,1.68,0,3.3-.46,4.76-1.48ZM455.48,230.04c0-4.26-.28-4.57-4.61-4.57v-.62c4.33,0,4.61-.31,4.61-4.57h.62c0,4.26.25,4.57,4.61,4.57v.62c-4.36,0-4.61.31-4.61,4.57h-.62Z"/>
        <path class="cls-1" d="M500.04,250.22v-.83h1.49c.78,0,1.09-.53,1.09-1.05,0-.28-.09-.59-.22-.8l-23.14-39.68v38.97c0,1.14.81,2.56,2.12,2.56h1.53v.83h-8.13v-.83h1.53c1.31,0,2.12-1.42,2.12-2.56v-40.39c-1.34-2.22-2.49-2.69-3.52-2.69v-.83h11.74v.83h-2.02c-.62,0-1.06.53-1.06,1.05,0,.15.03.31.12.46l23.26,39.68v-38.6c0-1.14-.81-2.56-2.12-2.56h-1.49v-.87h8.1v.87h-1.53c-1.31,0-2.12,1.42-2.12,2.56v40.02l.12.19c1.4,2.41,2.49,2.84,3.52,2.84v.83h-11.4Z"/>
        <path class="cls-1" d="M393.01,303.99c-4.95-14.03-9.87-28.09-14.79-42.12-.34-.96-.59-2.04-1.84-2.04h-1.34v-.83h10.9v.83h-1.53c-.69,0-.9.4-.9.9,0,.31.06.68.19.96,4.3,12.3,8.63,24.6,12.95,36.9l11.9-24.97c1.12-2.32,1.37-3.74,1.49-6.12,0-1.51-.31-2.94-.9-4.14-1.18-2.35-3.64-3.8-6.2-3.86-2.18.06-4.42,1.21-5.76,3.71h-.93l1.71-4.2h4.73c4.73,0,8.19,3.12,8.19,8.37,0,2.04-.53,4.3-1.53,6.4l-15.51,32.54-.84-2.32Z"/>
        <path class="cls-1" d="M411.29,292.97c0-5.56,3.64-11,10.71-12.02-5.76-1.51-8.72-6.12-8.72-10.69,0-5.66,4.45-11.28,13.76-11.28h13.7l1.81,6.06h-.84c-.87-2.63-2.18-5.19-5.98-5.22h-8.72c-6.07,0-8.35,5.01-8.35,10.07s2.49,10.75,5.7,10.79h7.57c1.09,0,1.93-.46,1.93-1.64v-3.8h.84v11.71h-.84v-3.86c0-1.05-.87-1.58-1.9-1.58h-7.66c-4.7.19-7.69,5.47-7.69,10.97,0,6.34,3.64,12.18,12.52,12.33,5.51,0,10.9-2.53,12.99-8.13h.9c-2.15,6.06-8.25,9.21-14.51,9.58l-1.56.06c-10.59,0-15.66-6.8-15.66-13.35Z"/>
        <path class="cls-1" d="M476,305.04c0-1.67-2.49-1.89-3.71-1.89-2.09,1.24-4.7,1.89-7.47,1.89-9.59,0-21.21-7.57-21.21-23.64,0-11.84,7.13-23.67,21.43-23.67h9.16l1.9,6.09h-.87c-.84-2.66-2.02-5.25-6.07-5.25h-4.11c-11.24.06-16.04,11.5-16.07,23.21,0,5.69,1.28,10.2,3.3,13.63,1.4-10.63,9.69-11.71,12.11-11.8h16.07v.87h-1.56c-1.81,0-2.06.93-2.06,2.5v18.08h-.84ZM472.29,302.32v-15.42c0-1.73-.25-2.44-2.37-2.44h-5.39c-2.15,0-10.62.71-11.52,12.08,3.49,5.07,8.66,7.45,13.24,7.45,2.24,0,4.36-.59,6.04-1.67Z"/>
        <path class="cls-1" d="M501.63,305.04v-.83h1.53c.78,0,1-.49,1-1.05,0-.25-.06-.56-.12-.8-.12-.22-.09-.31-.16-.56-1.4-5.01-3.74-9.18-7.26-12.33-3.18-2.84-7.16-4.6-11.77-4.67l-2.12,5.66c-.62,1.67-.93,3.34-.93,4.94,0,1.98.47,3.8,1.37,5.28,1.4,2.35,4.02,3.8,6.54,3.86,2.21-.06,4.33-1.17,5.42-3.71h.93l-1.31,4.2h-4.83c-3.08,0-5.85-1.27-7.54-4.11-.93-1.55-1.43-3.46-1.43-5.53,0-1.64.31-3.4.97-5.13l10.71-28.62-.5-1.85c-.34-.87-.59-1.24-1.65-1.24h-1.06v-.83h11.27v.83h-2.02c-.65,0-1,.49-1,1.08,0,.12.03.28.06.43l11.77,42.09c.25.96.44,2.04,1.68,2.04h1.37v.83h-10.93ZM493,262.99l-7.85,20.95c7.29.22,13.17,4.57,16.72,10.79l-8.88-31.74Z"/>
      </g>
    </g>
  </g>
</svg>